
<svg width="21" height="19" viewBox="0 0 21 19" fill="none" xmlns="http://www.w3.org/2000/svg">
<symbol id="home">
<g clip-path="url(#clip0_11_274)">
<path d="M16.9922 17.9893C17.3455 17.9893 17.6315 17.7033 17.6315 17.35V10.4353H19.3307C19.9532 10.4353 20.4579 9.93063 20.4579 9.30815C20.4579 8.95485 20.2897 8.63519 20.0373 8.4333C14.9565 4.02544 15.3939 4.41239 11.188 0.761603C10.7674 0.391477 10.1449 0.391477 9.72428 0.761603L0.841255 8.46695C0.487953 8.76978 0.353362 9.2745 0.521601 9.71192C0.68984 10.1493 1.11044 10.4353 1.58151 10.4353H3.28072V17.35C3.28072 17.7033 3.56673 17.9893 3.93685 17.9893H7.75588V12.9589C7.75588 12.2523 8.32789 11.6635 9.0345 11.6635H11.8609C12.5675 11.6635 13.1564 12.2355 13.1564 12.9589V17.9893H16.9754H16.9922Z" stroke="#7A7B7B" stroke-width="0.942139" stroke-miterlimit="10"/>
</g>
<defs>
<clipPath id="clip0_11_274">
<rect width="20.9458" height="18.4649" fill="white"/>
</clipPath>
</defs>
</symbol>
</svg>
